# xmcd
#
# Track frame offsets:
#	150
#	16869
#	31753
#	48429
#	65319
#	79909
#	93368
#	108524
#	126960
#	143719
#	159251
#	176503
#
# Disc length: 2766 seconds
#
# Revision: 2
# Processed by: cddbd v1.4PL0 Copyright (c) Steve Scherf et al.
# Submitted via: CDmax 1.8
#
DISCID=8f0acc0c
DTITLE=Chrystian and Ralf - Esta o Paraiso
DYEAR=1900
DGENRE=
TTITLE0=S Mais um Caso de Amor
TTITLE1=O Show Vai Come ar
TTITLE2=Minha Hist ria com Voc 
TTITLE3=Romance Acabado
TTITLE4=O Quanto D i a Solid o
TTITLE5=J Passou
TTITLE6=Poeira no Vento
TTITLE7=Dist ncia
TTITLE8=Esta o Para so
TTITLE9=Amor Demais
TTITLE10=Camas Separadas
TTITLE11=Coisas de Atriz
EXTD=
EXTT0=
EXTT1=
EXTT2=
EXTT3=
EXTT4=
EXTT5=
EXTT6=
EXTT7=
EXTT8=
EXTT9=
EXTT10=
EXTT11=
PLAYORDER=
